<svg version="1.1" id="form-planet" xmlns="http://www.w3.org/2000/svg" xmlns:xlink="http://www.w3.org/1999/xlink" x="0px" y="0px"
viewBox="0 0 612 612" width="200" height="200" style="" xml:space="preserve" >

<style>

  #form-planet{
  display: block; margin: 0 auto;
    padding: 20px;
    max-width: 200px;
    max-height: 200px;
  }

  .planet-animation{
    animation: animationOrbit linear 20s;
    animation-iteration-count: infinite;
    transform-origin: 50% 50%;
    -webkit-animation: animationOrbit linear 20s;
    -webkit-animation-iteration-count: infinite;
    -webkit-transform-origin: 50% 50%;
  }

  @keyframes animationOrbit{
   100% {
      -webkit-transform: rotate(-360deg);
         -moz-transform: rotate(-360deg);
          -ms-transform: rotate(-360deg);
           -o-transform: rotate(-360deg);
              transform: rotate(-360deg);
    }
  }

  @-webkit-keyframes animationOrbit {
   100% {
      -webkit-transform: rotate(-360deg);
         -moz-transform: rotate(-360deg);
          -ms-transform: rotate(-360deg);
           -o-transform: rotate(-360deg);
              transform: rotate(-360deg);
    }
  }
</style>



  <g style="fill: #f9c1bd"><path d="M250.499,80.062c-40.069,0-77.815,13.122-109.158,37.949c-3.292,2.608-3.847,7.39-1.239,10.682
        c2.607,3.292,7.39,3.847,10.682,1.239c6.886-5.455,14.114-10.284,21.626-14.483c11.541,6.831,48.181,31.27,36.84,60.253
        c-5.851,14.951-20.209,17.215-41.448,18.964c-10.089,0.83-19.617,1.615-27.366,5.137c-10.084,4.583-15.198,12.945-15.198,24.855
        c0,19.898,8.716,34.542,16.406,47.462c8.793,14.774,16.388,27.533,12.19,46.845c-5.873,27.015-23.514,33.095-31.078,34.465
        c-20.681-27.051-32.987-60.826-32.987-97.429c0-40.162,14.892-78.611,41.929-108.264c2.83-3.103,2.608-7.912-0.496-10.742
        c-3.102-2.829-7.912-2.609-10.742,0.496C90.862,169.95,74.561,212.038,74.561,256c0,97.013,78.926,175.939,175.939,175.939
        S426.438,353.013,426.438,256S347.512,80.062,250.499,80.062z M250.5,416.731c-19.69,0-38.56-3.566-56.009-10.074
        c13.245-4.732,29.993-7.417,47.592-7.417c21.259,0,41.304,3.955,55.227,10.531C282.493,414.29,266.777,416.731,250.5,416.731z
         M344.957,385.958c-7.04-10.87-13.796-22.679-19.741-34.572c-1.878-3.756-6.446-5.279-10.201-3.401
        c-3.756,1.878-5.279,6.445-3.402,10.201c6.21,12.424,13.278,24.771,20.646,36.14c-5.373,3.188-10.946,6.073-16.696,8.629
        c-15.993-11.758-43.481-18.926-73.479-18.926c-25.886,0-49.666,5.181-66.192,14.297c-15.823-8.328-30.097-19.214-42.266-32.11
        c13.512-5.02,29.318-17.572,35.068-44.023c5.472-25.169-4.863-42.533-13.982-57.854c-7.336-12.326-14.266-23.97-14.266-39.684
        c0-10.926,6.095-12.981,28.604-14.835c19.878-1.636,44.616-3.674,54.362-28.58c7.73-19.752,1.629-40.271-17.639-59.339
        c-5.893-5.831-12.132-10.644-17.371-14.261c19.435-8.159,40.392-12.373,62.098-12.373c45.346,0,86.361,18.882,115.61,49.188
        c-6.365,1.599-14.36,3.892-22.421,6.954c-25.905,9.842-39.041,22.533-39.041,37.723c0,20.477,19.677,30.126,35.487,37.878
        c6.474,3.174,17.188,8.428,17.78,11.583c-2.003,2.66-13.504,6.24-20.445,8.402c-20.6,6.414-48.811,15.197-48.811,41.606
        c0,10.244,4.24,26.335,11.939,45.311c1.199,2.955,4.044,4.747,7.048,4.747c0.952,0,1.92-0.179,2.856-0.56
        c3.891-1.579,5.766-6.013,4.187-9.905c-6.878-16.954-10.823-31.385-10.823-39.594c0-14.095,16.523-20.36,38.124-27.085
        c16.023-4.988,31.157-9.701,31.157-22.656c0-12.599-13.379-19.16-26.318-25.505c-15.795-7.745-26.975-14.017-26.975-24.224
        c0-4.614,3.775-13.795,29.053-23.437c11.139-4.249,22.449-6.955,28.478-8.241c21.199,27.234,33.843,61.439,33.843,98.544
        C411.229,309.351,385.092,356.707,344.957,385.958z"/></g>
    <g class="planet-animation" style="fill: #644df4;">
      <g><path d="M498.578,221.038c-0.581-4.159-4.424-7.06-8.582-6.479c-4.16,0.581-7.06,4.423-6.479,8.582
            c1.51,10.808,2.275,21.863,2.275,32.858c0,4.199,3.405,7.604,7.604,7.604S501,260.199,501,256
            C501,244.303,500.184,232.54,498.578,221.038z"/></g>
      <g><path d="M492.22,281.245c-4.168-0.564-7.991,2.357-8.553,6.519c-2.898,21.476-8.753,42.417-17.403,62.243
            c-1.68,3.85,0.079,8.331,3.929,10.011c0.991,0.432,2.022,0.637,3.037,0.637c2.932,0,5.725-1.706,6.973-4.564
            c9.214-21.117,15.45-43.421,18.535-66.291C499.299,285.635,496.382,281.805,492.22,281.245z"/></g>
      <g><path d="M461.007,377.501c-3.57-2.215-8.256-1.119-10.471,2.448c-29.877,48.112-75.971,83.867-129.789,100.679
            c-4.009,1.252-6.243,5.516-4.99,9.525c1.016,3.254,4.017,5.339,7.255,5.339c0.751,0,1.516-0.112,2.27-0.348
            c57.301-17.9,106.372-55.961,138.175-107.173C465.671,384.405,464.575,379.717,461.007,377.501z"/></g>
      <g><path d="M295.157,494.921c-0.637-4.15-4.514-6.997-8.669-6.362c-11.824,1.814-23.931,2.733-35.988,2.733
            c-62.849,0-121.936-24.475-166.376-68.916C39.682,377.935,15.208,318.849,15.208,256c0-78.287,38.782-151.226,103.743-195.112
            c3.48-2.351,4.395-7.078,2.044-10.558c-2.351-3.479-7.077-4.393-10.558-2.044C41.285,95.004,0,172.654,0,256
            c0,66.911,26.056,129.817,73.37,177.13c47.313,47.314,110.219,73.37,177.129,73.37c12.826,0,25.711-0.979,38.294-2.91
            C292.945,502.953,295.793,499.072,295.157,494.921z"/></g>
      <g><path d="M366.823,34.092C331.214,15.387,290.99,5.5,250.499,5.5c-34.156,0-67.269,6.754-98.416,20.074
            c-3.861,1.652-5.652,6.121-4.002,9.981c1.653,3.862,6.12,5.652,9.981,4.002c29.248-12.508,60.347-18.85,92.437-18.85
            c38.036,0,75.815,9.284,109.253,26.847c1.128,0.593,2.338,0.874,3.529,0.874c2.735,0,5.379-1.48,6.738-4.07
            C371.972,40.642,370.541,36.044,366.823,34.092z"/></g>
      <g><path d="M510.82,126.379L469.5,61.083c-12.978-20.509-40.225-26.638-60.735-13.658c-20.51,12.979-26.637,40.225-13.658,60.735
            l41.32,65.296c1.447,2.286,3.912,3.538,6.433,3.538c1.39,0,2.797-0.381,4.058-1.18c3.549-2.246,4.605-6.943,2.359-10.491
            l-23.552-37.218c2.197,0.334,4.418,0.523,6.649,0.523c5.623,0,11.284-1.101,16.676-3.322l37.62,59.449
            c1.447,2.286,3.913,3.538,6.433,3.538c1.39,0,2.797-0.381,4.058-1.18c3.548-2.246,4.605-6.943,2.359-10.491l-37.609-59.43
            c5.902-5.342,10.215-12.16,12.526-19.866l23.532,37.185c1.447,2.286,3.913,3.538,6.433,3.538c1.39,0,2.797-0.381,4.058-1.18
            C512.01,134.624,513.067,129.928,510.82,126.379z M447.709,108.968c-13.425,8.496-31.256,4.485-39.752-8.939
            c-8.495-13.424-4.484-31.257,8.94-39.752c4.769-3.018,10.094-4.457,15.36-4.457c9.556,0,18.915,4.742,24.391,13.396
            C465.143,82.641,461.134,100.473,447.709,108.968z"/></g>
      </g>
  </svg>
